<?xml version="1.0" standalone="no"?>
<!DOCTYPE svg PUBLIC "-//W3C//DTD SVG 20010904//EN"
 "http://www.w3.org/TR/2001/REC-SVG-20010904/DTD/svg10.dtd">
<svg version="1.0" xmlns="http://www.w3.org/2000/svg"
 width="700.000000pt" height="700.000000pt" viewBox="0 0 700.000000 700.000000"
 preserveAspectRatio="xMidYMid meet">
<metadata>
Created by potrace 1.14, written by Peter Selinger 2001-2017
</metadata>
<g transform="translate(0.000000,700.000000) scale(0.100000,-0.100000)"
fill="#000000" stroke="none">
<path d="M737 6990 c-337 -57 -599 -290 -704 -627 l-28 -88 0 -1025 0 -1025
28 -88 c95 -303 301 -509 604 -604 l88 -28 2775 0 2775 0 88 28 c311 97 528
320 609 627 l23 85 0 1015 0 1015 -28 88 c-95 304 -300 509 -604 604 l-88 28
-2745 1 c-1510 1 -2767 -2 -2793 -6z m5450 -760 c67 -40 63 15 63 -980 0 -995
4 -940 -63 -980 -32 -20 -71 -20 -2687 -20 -2616 0 -2655 0 -2687 20 -67 40
-63 -15 -63 980 0 995 -4 940 63 980 32 20 71 20 2687 20 2616 0 2655 0 2687
-20z"/>
<path d="M737 2990 c-338 -58 -599 -290 -704 -627 l-28 -88 0 -775 0 -775 28
-88 c95 -303 301 -509 604 -604 l88 -28 775 0 775 0 88 28 c311 97 528 320
609 627 23 85 23 87 23 850 l0 765 -28 88 c-95 304 -301 510 -604 604 l-88 28
-745 1 c-410 1 -767 -2 -793 -6z m1450 -760 c65 -39 63 -11 63 -732 0 -630 -1
-654 -20 -685 -39 -65 -12 -63 -730 -63 -718 0 -691 -2 -730 63 -19 31 -20 55
-20 685 0 721 -2 693 63 732 31 19 55 20 687 20 632 0 656 -1 687 -20z"/>
<path d="M4737 2990 c-338 -58 -599 -290 -704 -627 l-28 -88 0 -775 0 -775 28
-88 c95 -303 301 -509 604 -604 l88 -28 775 0 775 0 88 28 c311 97 528 320
609 627 23 85 23 87 23 850 l0 765 -28 88 c-95 304 -301 510 -604 604 l-88 28
-745 1 c-410 1 -767 -2 -793 -6z m1450 -760 c65 -39 63 -11 63 -732 0 -630 -1
-654 -20 -685 -39 -65 -12 -63 -730 -63 -718 0 -691 -2 -730 63 -19 31 -20 55
-20 685 0 721 -2 693 63 732 31 19 55 20 687 20 632 0 656 -1 687 -20z"/>
</g>
</svg>
